<svg viewBox="0 0 356 76" xmlns="http://www.w3.org/2000/svg">
<style>
.rect{fill:#ffffff;opacity:0;transform-origin:center;}
@keyframes inUp{from{transform:translateY(8px);opacity:0}to{transform:translateY(0);opacity:1}}
</style>
<rect class="rect" x="9" y="0" width="8" height="10" style="animation: inUp 420ms ease-out 0.0s forwards"/>
<rect class="rect" x="18" y="0" width="8" height="10" style="animation: inUp 420ms ease-out 0.03s forwards"/>
<rect class="rect" x="27" y="0" width="8" height="10" style="animation: inUp 420ms ease-out 0.06s forwards"/>
<rect class="rect" x="0" y="11" width="8" height="10" style="animation: inUp 420ms ease-out 0.09s forwards"/>
<rect class="rect" x="36" y="11" width="8" height="10" style="animation: inUp 420ms ease-out 0.12s forwards"/>
<rect class="rect" x="0" y="22" width="8" height="10" style="animation: inUp 420ms ease-out 0.15s forwards"/>
<rect class="rect" x="9" y="33" width="8" height="10" style="animation: inUp 420ms ease-out 0.18s forwards"/>
<rect class="rect" x="18" y="33" width="8" height="10" style="animation: inUp 420ms ease-out 0.21s forwards"/>
<rect class="rect" x="27" y="33" width="8" height="10" style="animation: inUp 420ms ease-out 0.24s forwards"/>
<rect class="rect" x="36" y="44" width="8" height="10" style="animation: inUp 420ms ease-out 0.27s forwards"/>
<rect class="rect" x="0" y="55" width="8" height="10" style="animation: inUp 420ms ease-out 0.3s forwards"/>
<rect class="rect" x="36" y="55" width="8" height="10" style="animation: inUp 420ms ease-out 0.33s forwards"/>
<rect class="rect" x="9" y="66" width="8" height="10" style="animation: inUp 420ms ease-out 0.36s forwards"/>
<rect class="rect" x="18" y="66" width="8" height="10" style="animation: inUp 420ms ease-out 0.39s forwards"/>
<rect class="rect" x="27" y="66" width="8" height="10" style="animation: inUp 420ms ease-out 0.42s forwards"/>
<rect class="rect" x="52" y="0" width="8" height="10" style="animation: inUp 420ms ease-out 0.45s forwards"/>
<rect class="rect" x="88" y="0" width="8" height="10" style="animation: inUp 420ms ease-out 0.48s forwards"/>
<rect class="rect" x="52" y="11" width="8" height="10" style="animation: inUp 420ms ease-out 0.51s forwards"/>
<rect class="rect" x="88" y="11" width="8" height="10" style="animation: inUp 420ms ease-out 0.54s forwards"/>
<rect class="rect" x="52" y="22" width="8" height="10" style="animation: inUp 420ms ease-out 0.57s forwards"/>
<rect class="rect" x="88" y="22" width="8" height="10" style="animation: inUp 420ms ease-out 0.6s forwards"/>
<rect class="rect" x="52" y="33" width="8" height="10" style="animation: inUp 420ms ease-out 0.63s forwards"/>
<rect class="rect" x="61" y="33" width="8" height="10" style="animation: inUp 420ms ease-out 0.66s forwards"/>
<rect class="rect" x="70" y="33" width="8" height="10" style="animation: inUp 420ms ease-out 0.69s forwards"/>
<rect class="rect" x="79" y="33" width="8" height="10" style="animation: inUp 420ms ease-out 0.72s forwards"/>
<rect class="rect" x="88" y="33" width="8" height="10" style="animation: inUp 420ms ease-out 0.75s forwards"/>
<rect class="rect" x="52" y="44" width="8" height="10" style="animation: inUp 420ms ease-out 0.78s forwards"/>
<rect class="rect" x="88" y="44" width="8" height="10" style="animation: inUp 420ms ease-out 0.81s forwards"/>
<rect class="rect" x="52" y="55" width="8" height="10" style="animation: inUp 420ms ease-out 0.84s forwards"/>
<rect class="rect" x="88" y="55" width="8" height="10" style="animation: inUp 420ms ease-out 0.87s forwards"/>
<rect class="rect" x="52" y="66" width="8" height="10" style="animation: inUp 420ms ease-out 0.9s forwards"/>
<rect class="rect" x="88" y="66" width="8" height="10" style="animation: inUp 420ms ease-out 0.93s forwards"/>
<rect class="rect" x="104" y="0" width="8" height="10" style="animation: inUp 420ms ease-out 0.96s forwards"/>
<rect class="rect" x="113" y="0" width="8" height="10" style="animation: inUp 420ms ease-out 0.99s forwards"/>
<rect class="rect" x="122" y="0" width="8" height="10" style="animation: inUp 420ms ease-out 1.02s forwards"/>
<rect class="rect" x="131" y="0" width="8" height="10" style="animation: inUp 420ms ease-out 1.05s forwards"/>
<rect class="rect" x="140" y="0" width="8" height="10" style="animation: inUp 420ms ease-out 1.08s forwards"/>
<rect class="rect" x="104" y="11" width="8" height="10" style="animation: inUp 420ms ease-out 1.11s forwards"/>
<rect class="rect" x="104" y="22" width="8" height="10" style="animation: inUp 420ms ease-out 1.14s forwards"/>
<rect class="rect" x="104" y="33" width="8" height="10" style="animation: inUp 420ms ease-out 1.17s forwards"/>
<rect class="rect" x="113" y="33" width="8" height="10" style="animation: inUp 420ms ease-out 1.2s forwards"/>
<rect class="rect" x="122" y="33" width="8" height="10" style="animation: inUp 420ms ease-out 1.23s forwards"/>
<rect class="rect" x="131" y="33" width="8" height="10" style="animation: inUp 420ms ease-out 1.26s forwards"/>
<rect class="rect" x="104" y="44" width="8" height="10" style="animation: inUp 420ms ease-out 1.29s forwards"/>
<rect class="rect" x="104" y="55" width="8" height="10" style="animation: inUp 420ms ease-out 1.32s forwards"/>
<rect class="rect" x="104" y="66" width="8" height="10" style="animation: inUp 420ms ease-out 1.35s forwards"/>
<rect class="rect" x="113" y="66" width="8" height="10" style="animation: inUp 420ms ease-out 1.38s forwards"/>
<rect class="rect" x="122" y="66" width="8" height="10" style="animation: inUp 420ms ease-out 1.41s forwards"/>
<rect class="rect" x="131" y="66" width="8" height="10" style="animation: inUp 420ms ease-out 1.44s forwards"/>
<rect class="rect" x="140" y="66" width="8" height="10" style="animation: inUp 420ms ease-out 1.47s forwards"/>
<rect class="rect" x="156" y="0" width="8" height="10" style="animation: inUp 420ms ease-out 1.5s forwards"/>
<rect class="rect" x="156" y="11" width="8" height="10" style="animation: inUp 420ms ease-out 1.53s forwards"/>
<rect class="rect" x="156" y="22" width="8" height="10" style="animation: inUp 420ms ease-out 1.56s forwards"/>
<rect class="rect" x="156" y="33" width="8" height="10" style="animation: inUp 420ms ease-out 1.59s forwards"/>
<rect class="rect" x="156" y="44" width="8" height="10" style="animation: inUp 420ms ease-out 1.62s forwards"/>
<rect class="rect" x="156" y="55" width="8" height="10" style="animation: inUp 420ms ease-out 1.65s forwards"/>
<rect class="rect" x="156" y="66" width="8" height="10" style="animation: inUp 420ms ease-out 1.68s forwards"/>
<rect class="rect" x="165" y="66" width="8" height="10" style="animation: inUp 420ms ease-out 1.71s forwards"/>
<rect class="rect" x="174" y="66" width="8" height="10" style="animation: inUp 420ms ease-out 1.74s forwards"/>
<rect class="rect" x="183" y="66" width="8" height="10" style="animation: inUp 420ms ease-out 1.77s forwards"/>
<rect class="rect" x="192" y="66" width="8" height="10" style="animation: inUp 420ms ease-out 1.8s forwards"/>
<rect class="rect" x="208" y="0" width="8" height="10" style="animation: inUp 420ms ease-out 1.83s forwards"/>
<rect class="rect" x="208" y="11" width="8" height="10" style="animation: inUp 420ms ease-out 1.86s forwards"/>
<rect class="rect" x="208" y="22" width="8" height="10" style="animation: inUp 420ms ease-out 1.89s forwards"/>
<rect class="rect" x="208" y="33" width="8" height="10" style="animation: inUp 420ms ease-out 1.92s forwards"/>
<rect class="rect" x="208" y="44" width="8" height="10" style="animation: inUp 420ms ease-out 1.95s forwards"/>
<rect class="rect" x="208" y="55" width="8" height="10" style="animation: inUp 420ms ease-out 1.98s forwards"/>
<rect class="rect" x="208" y="66" width="8" height="10" style="animation: inUp 420ms ease-out 2.01s forwards"/>
<rect class="rect" x="217" y="66" width="8" height="10" style="animation: inUp 420ms ease-out 2.04s forwards"/>
<rect class="rect" x="226" y="66" width="8" height="10" style="animation: inUp 420ms ease-out 2.07s forwards"/>
<rect class="rect" x="235" y="66" width="8" height="10" style="animation: inUp 420ms ease-out 2.1s forwards"/>
<rect class="rect" x="244" y="66" width="8" height="10" style="animation: inUp 420ms ease-out 2.13s forwards"/>
<rect class="rect" x="260" y="0" width="8" height="10" style="animation: inUp 420ms ease-out 2.16s forwards"/>
<rect class="rect" x="269" y="0" width="8" height="10" style="animation: inUp 420ms ease-out 2.19s forwards"/>
<rect class="rect" x="278" y="0" width="8" height="10" style="animation: inUp 420ms ease-out 2.22s forwards"/>
<rect class="rect" x="287" y="0" width="8" height="10" style="animation: inUp 420ms ease-out 2.25s forwards"/>
<rect class="rect" x="296" y="0" width="8" height="10" style="animation: inUp 420ms ease-out 2.28s forwards"/>
<rect class="rect" x="278" y="11" width="8" height="10" style="animation: inUp 420ms ease-out 2.31s forwards"/>
<rect class="rect" x="278" y="22" width="8" height="10" style="animation: inUp 420ms ease-out 2.34s forwards"/>
<rect class="rect" x="278" y="33" width="8" height="10" style="animation: inUp 420ms ease-out 2.37s forwards"/>
<rect class="rect" x="278" y="44" width="8" height="10" style="animation: inUp 420ms ease-out 2.4s forwards"/>
<rect class="rect" x="278" y="55" width="8" height="10" style="animation: inUp 420ms ease-out 2.43s forwards"/>
<rect class="rect" x="260" y="66" width="8" height="10" style="animation: inUp 420ms ease-out 2.46s forwards"/>
<rect class="rect" x="269" y="66" width="8" height="10" style="animation: inUp 420ms ease-out 2.49s forwards"/>
<rect class="rect" x="278" y="66" width="8" height="10" style="animation: inUp 420ms ease-out 2.52s forwards"/>
<rect class="rect" x="287" y="66" width="8" height="10" style="animation: inUp 420ms ease-out 2.55s forwards"/>
<rect class="rect" x="296" y="66" width="8" height="10" style="animation: inUp 420ms ease-out 2.58s forwards"/>
<rect class="rect" x="312" y="0" width="8" height="10" style="animation: inUp 420ms ease-out 2.61s forwards"/>
<rect class="rect" x="321" y="0" width="8" height="10" style="animation: inUp 420ms ease-out 2.64s forwards"/>
<rect class="rect" x="330" y="0" width="8" height="10" style="animation: inUp 420ms ease-out 2.67s forwards"/>
<rect class="rect" x="339" y="0" width="8" height="10" style="animation: inUp 420ms ease-out 2.7s forwards"/>
<rect class="rect" x="348" y="0" width="8" height="10" style="animation: inUp 420ms ease-out 2.73s forwards"/>
<rect class="rect" x="330" y="11" width="8" height="10" style="animation: inUp 420ms ease-out 2.76s forwards"/>
<rect class="rect" x="330" y="22" width="8" height="10" style="animation: inUp 420ms ease-out 2.79s forwards"/>
<rect class="rect" x="330" y="33" width="8" height="10" style="animation: inUp 420ms ease-out 2.82s forwards"/>
<rect class="rect" x="330" y="44" width="8" height="10" style="animation: inUp 420ms ease-out 2.85s forwards"/>
<rect class="rect" x="330" y="55" width="8" height="10" style="animation: inUp 420ms ease-out 2.88s forwards"/>
<rect class="rect" x="330" y="66" width="8" height="10" style="animation: inUp 420ms ease-out 2.91s forwards"/>
</svg>
