<svg viewBox="0 0 356 76" xmlns="http://www.w3.org/2000/svg">
<defs>
  <filter id="f1" x="-50%" y="-50%" width="200%" height="200%">
    <feGaussianBlur stdDeviation="3" result="b"/>
    <feMerge>
      <feMergeNode in="b"/>
      <feMergeNode in="SourceGraphic"/>
    </feMerge>
  </filter>
</defs>
<rect x="9" y="0" width="8" height="10" fill="#ffffff" filter="url(#f1)"/>
<rect x="18" y="0" width="8" height="10" fill="#ffffff" filter="url(#f1)"/>
<rect x="27" y="0" width="8" height="10" fill="#ffffff" filter="url(#f1)"/>
<rect x="0" y="11" width="8" height="10" fill="#ffffff" filter="url(#f1)"/>
<rect x="36" y="11" width="8" height="10" fill="#ffffff" filter="url(#f1)"/>
<rect x="0" y="22" width="8" height="10" fill="#ffffff" filter="url(#f1)"/>
<rect x="9" y="33" width="8" height="10" fill="#ffffff" filter="url(#f1)"/>
<rect x="18" y="33" width="8" height="10" fill="#ffffff" filter="url(#f1)"/>
<rect x="27" y="33" width="8" height="10" fill="#ffffff" filter="url(#f1)"/>
<rect x="36" y="44" width="8" height="10" fill="#ffffff" filter="url(#f1)"/>
<rect x="0" y="55" width="8" height="10" fill="#ffffff" filter="url(#f1)"/>
<rect x="36" y="55" width="8" height="10" fill="#ffffff" filter="url(#f1)"/>
<rect x="9" y="66" width="8" height="10" fill="#ffffff" filter="url(#f1)"/>
<rect x="18" y="66" width="8" height="10" fill="#ffffff" filter="url(#f1)"/>
<rect x="27" y="66" width="8" height="10" fill="#ffffff" filter="url(#f1)"/>
<rect x="52" y="0" width="8" height="10" fill="#ffffff" filter="url(#f1)"/>
<rect x="88" y="0" width="8" height="10" fill="#ffffff" filter="url(#f1)"/>
<rect x="52" y="11" width="8" height="10" fill="#ffffff" filter="url(#f1)"/>
<rect x="88" y="11" width="8" height="10" fill="#ffffff" filter="url(#f1)"/>
<rect x="52" y="22" width="8" height="10" fill="#ffffff" filter="url(#f1)"/>
<rect x="88" y="22" width="8" height="10" fill="#ffffff" filter="url(#f1)"/>
<rect x="52" y="33" width="8" height="10" fill="#ffffff" filter="url(#f1)"/>
<rect x="61" y="33" width="8" height="10" fill="#ffffff" filter="url(#f1)"/>
<rect x="70" y="33" width="8" height="10" fill="#ffffff" filter="url(#f1)"/>
<rect x="79" y="33" width="8" height="10" fill="#ffffff" filter="url(#f1)"/>
<rect x="88" y="33" width="8" height="10" fill="#ffffff" filter="url(#f1)"/>
<rect x="52" y="44" width="8" height="10" fill="#ffffff" filter="url(#f1)"/>
<rect x="88" y="44" width="8" height="10" fill="#ffffff" filter="url(#f1)"/>
<rect x="52" y="55" width="8" height="10" fill="#ffffff" filter="url(#f1)"/>
<rect x="88" y="55" width="8" height="10" fill="#ffffff" filter="url(#f1)"/>
<rect x="52" y="66" width="8" height="10" fill="#ffffff" filter="url(#f1)"/>
<rect x="88" y="66" width="8" height="10" fill="#ffffff" filter="url(#f1)"/>
<rect x="104" y="0" width="8" height="10" fill="#ffffff" filter="url(#f1)"/>
<rect x="113" y="0" width="8" height="10" fill="#ffffff" filter="url(#f1)"/>
<rect x="122" y="0" width="8" height="10" fill="#ffffff" filter="url(#f1)"/>
<rect x="131" y="0" width="8" height="10" fill="#ffffff" filter="url(#f1)"/>
<rect x="140" y="0" width="8" height="10" fill="#ffffff" filter="url(#f1)"/>
<rect x="104" y="11" width="8" height="10" fill="#ffffff" filter="url(#f1)"/>
<rect x="104" y="22" width="8" height="10" fill="#ffffff" filter="url(#f1)"/>
<rect x="104" y="33" width="8" height="10" fill="#ffffff" filter="url(#f1)"/>
<rect x="113" y="33" width="8" height="10" fill="#ffffff" filter="url(#f1)"/>
<rect x="122" y="33" width="8" height="10" fill="#ffffff" filter="url(#f1)"/>
<rect x="131" y="33" width="8" height="10" fill="#ffffff" filter="url(#f1)"/>
<rect x="104" y="44" width="8" height="10" fill="#ffffff" filter="url(#f1)"/>
<rect x="104" y="55" width="8" height="10" fill="#ffffff" filter="url(#f1)"/>
<rect x="104" y="66" width="8" height="10" fill="#ffffff" filter="url(#f1)"/>
<rect x="113" y="66" width="8" height="10" fill="#ffffff" filter="url(#f1)"/>
<rect x="122" y="66" width="8" height="10" fill="#ffffff" filter="url(#f1)"/>
<rect x="131" y="66" width="8" height="10" fill="#ffffff" filter="url(#f1)"/>
<rect x="140" y="66" width="8" height="10" fill="#ffffff" filter="url(#f1)"/>
<rect x="156" y="0" width="8" height="10" fill="#ffffff" filter="url(#f1)"/>
<rect x="156" y="11" width="8" height="10" fill="#ffffff" filter="url(#f1)"/>
<rect x="156" y="22" width="8" height="10" fill="#ffffff" filter="url(#f1)"/>
<rect x="156" y="33" width="8" height="10" fill="#ffffff" filter="url(#f1)"/>
<rect x="156" y="44" width="8" height="10" fill="#ffffff" filter="url(#f1)"/>
<rect x="156" y="55" width="8" height="10" fill="#ffffff" filter="url(#f1)"/>
<rect x="156" y="66" width="8" height="10" fill="#ffffff" filter="url(#f1)"/>
<rect x="165" y="66" width="8" height="10" fill="#ffffff" filter="url(#f1)"/>
<rect x="174" y="66" width="8" height="10" fill="#ffffff" filter="url(#f1)"/>
<rect x="183" y="66" width="8" height="10" fill="#ffffff" filter="url(#f1)"/>
<rect x="192" y="66" width="8" height="10" fill="#ffffff" filter="url(#f1)"/>
<rect x="208" y="0" width="8" height="10" fill="#ffffff" filter="url(#f1)"/>
<rect x="208" y="11" width="8" height="10" fill="#ffffff" filter="url(#f1)"/>
<rect x="208" y="22" width="8" height="10" fill="#ffffff" filter="url(#f1)"/>
<rect x="208" y="33" width="8" height="10" fill="#ffffff" filter="url(#f1)"/>
<rect x="208" y="44" width="8" height="10" fill="#ffffff" filter="url(#f1)"/>
<rect x="208" y="55" width="8" height="10" fill="#ffffff" filter="url(#f1)"/>
<rect x="208" y="66" width="8" height="10" fill="#ffffff" filter="url(#f1)"/>
<rect x="217" y="66" width="8" height="10" fill="#ffffff" filter="url(#f1)"/>
<rect x="226" y="66" width="8" height="10" fill="#ffffff" filter="url(#f1)"/>
<rect x="235" y="66" width="8" height="10" fill="#ffffff" filter="url(#f1)"/>
<rect x="244" y="66" width="8" height="10" fill="#ffffff" filter="url(#f1)"/>
<rect x="260" y="0" width="8" height="10" fill="#ffffff" filter="url(#f1)"/>
<rect x="269" y="0" width="8" height="10" fill="#ffffff" filter="url(#f1)"/>
<rect x="278" y="0" width="8" height="10" fill="#ffffff" filter="url(#f1)"/>
<rect x="287" y="0" width="8" height="10" fill="#ffffff" filter="url(#f1)"/>
<rect x="296" y="0" width="8" height="10" fill="#ffffff" filter="url(#f1)"/>
<rect x="278" y="11" width="8" height="10" fill="#ffffff" filter="url(#f1)"/>
<rect x="278" y="22" width="8" height="10" fill="#ffffff" filter="url(#f1)"/>
<rect x="278" y="33" width="8" height="10" fill="#ffffff" filter="url(#f1)"/>
<rect x="278" y="44" width="8" height="10" fill="#ffffff" filter="url(#f1)"/>
<rect x="278" y="55" width="8" height="10" fill="#ffffff" filter="url(#f1)"/>
<rect x="260" y="66" width="8" height="10" fill="#ffffff" filter="url(#f1)"/>
<rect x="269" y="66" width="8" height="10" fill="#ffffff" filter="url(#f1)"/>
<rect x="278" y="66" width="8" height="10" fill="#ffffff" filter="url(#f1)"/>
<rect x="287" y="66" width="8" height="10" fill="#ffffff" filter="url(#f1)"/>
<rect x="296" y="66" width="8" height="10" fill="#ffffff" filter="url(#f1)"/>
<rect x="312" y="0" width="8" height="10" fill="#ffffff" filter="url(#f1)"/>
<rect x="321" y="0" width="8" height="10" fill="#ffffff" filter="url(#f1)"/>
<rect x="330" y="0" width="8" height="10" fill="#ffffff" filter="url(#f1)"/>
<rect x="339" y="0" width="8" height="10" fill="#ffffff" filter="url(#f1)"/>
<rect x="348" y="0" width="8" height="10" fill="#ffffff" filter="url(#f1)"/>
<rect x="330" y="11" width="8" height="10" fill="#ffffff" filter="url(#f1)"/>
<rect x="330" y="22" width="8" height="10" fill="#ffffff" filter="url(#f1)"/>
<rect x="330" y="33" width="8" height="10" fill="#ffffff" filter="url(#f1)"/>
<rect x="330" y="44" width="8" height="10" fill="#ffffff" filter="url(#f1)"/>
<rect x="330" y="55" width="8" height="10" fill="#ffffff" filter="url(#f1)"/>
<rect x="330" y="66" width="8" height="10" fill="#ffffff" filter="url(#f1)"/>
</svg>
