<svg viewBox="0 0 356 76" xmlns="http://www.w3.org/2000/svg">
<defs>
  <linearGradient id="g1" x1="0" x2="1" y1="0" y2="0">
    <stop offset="0%" stop-color="#00d4ff"/>
    <stop offset="50%" stop-color="#7f00ff"/>
    <stop offset="100%" stop-color="#ff4081"/>
  </linearGradient>
</defs>
<rect x="9" y="0" width="8" height="10" fill="url(#g1)"/>
<rect x="18" y="0" width="8" height="10" fill="url(#g1)"/>
<rect x="27" y="0" width="8" height="10" fill="url(#g1)"/>
<rect x="0" y="11" width="8" height="10" fill="url(#g1)"/>
<rect x="36" y="11" width="8" height="10" fill="url(#g1)"/>
<rect x="0" y="22" width="8" height="10" fill="url(#g1)"/>
<rect x="9" y="33" width="8" height="10" fill="url(#g1)"/>
<rect x="18" y="33" width="8" height="10" fill="url(#g1)"/>
<rect x="27" y="33" width="8" height="10" fill="url(#g1)"/>
<rect x="36" y="44" width="8" height="10" fill="url(#g1)"/>
<rect x="0" y="55" width="8" height="10" fill="url(#g1)"/>
<rect x="36" y="55" width="8" height="10" fill="url(#g1)"/>
<rect x="9" y="66" width="8" height="10" fill="url(#g1)"/>
<rect x="18" y="66" width="8" height="10" fill="url(#g1)"/>
<rect x="27" y="66" width="8" height="10" fill="url(#g1)"/>
<rect x="52" y="0" width="8" height="10" fill="url(#g1)"/>
<rect x="88" y="0" width="8" height="10" fill="url(#g1)"/>
<rect x="52" y="11" width="8" height="10" fill="url(#g1)"/>
<rect x="88" y="11" width="8" height="10" fill="url(#g1)"/>
<rect x="52" y="22" width="8" height="10" fill="url(#g1)"/>
<rect x="88" y="22" width="8" height="10" fill="url(#g1)"/>
<rect x="52" y="33" width="8" height="10" fill="url(#g1)"/>
<rect x="61" y="33" width="8" height="10" fill="url(#g1)"/>
<rect x="70" y="33" width="8" height="10" fill="url(#g1)"/>
<rect x="79" y="33" width="8" height="10" fill="url(#g1)"/>
<rect x="88" y="33" width="8" height="10" fill="url(#g1)"/>
<rect x="52" y="44" width="8" height="10" fill="url(#g1)"/>
<rect x="88" y="44" width="8" height="10" fill="url(#g1)"/>
<rect x="52" y="55" width="8" height="10" fill="url(#g1)"/>
<rect x="88" y="55" width="8" height="10" fill="url(#g1)"/>
<rect x="52" y="66" width="8" height="10" fill="url(#g1)"/>
<rect x="88" y="66" width="8" height="10" fill="url(#g1)"/>
<rect x="104" y="0" width="8" height="10" fill="url(#g1)"/>
<rect x="113" y="0" width="8" height="10" fill="url(#g1)"/>
<rect x="122" y="0" width="8" height="10" fill="url(#g1)"/>
<rect x="131" y="0" width="8" height="10" fill="url(#g1)"/>
<rect x="140" y="0" width="8" height="10" fill="url(#g1)"/>
<rect x="104" y="11" width="8" height="10" fill="url(#g1)"/>
<rect x="104" y="22" width="8" height="10" fill="url(#g1)"/>
<rect x="104" y="33" width="8" height="10" fill="url(#g1)"/>
<rect x="113" y="33" width="8" height="10" fill="url(#g1)"/>
<rect x="122" y="33" width="8" height="10" fill="url(#g1)"/>
<rect x="131" y="33" width="8" height="10" fill="url(#g1)"/>
<rect x="104" y="44" width="8" height="10" fill="url(#g1)"/>
<rect x="104" y="55" width="8" height="10" fill="url(#g1)"/>
<rect x="104" y="66" width="8" height="10" fill="url(#g1)"/>
<rect x="113" y="66" width="8" height="10" fill="url(#g1)"/>
<rect x="122" y="66" width="8" height="10" fill="url(#g1)"/>
<rect x="131" y="66" width="8" height="10" fill="url(#g1)"/>
<rect x="140" y="66" width="8" height="10" fill="url(#g1)"/>
<rect x="156" y="0" width="8" height="10" fill="url(#g1)"/>
<rect x="156" y="11" width="8" height="10" fill="url(#g1)"/>
<rect x="156" y="22" width="8" height="10" fill="url(#g1)"/>
<rect x="156" y="33" width="8" height="10" fill="url(#g1)"/>
<rect x="156" y="44" width="8" height="10" fill="url(#g1)"/>
<rect x="156" y="55" width="8" height="10" fill="url(#g1)"/>
<rect x="156" y="66" width="8" height="10" fill="url(#g1)"/>
<rect x="165" y="66" width="8" height="10" fill="url(#g1)"/>
<rect x="174" y="66" width="8" height="10" fill="url(#g1)"/>
<rect x="183" y="66" width="8" height="10" fill="url(#g1)"/>
<rect x="192" y="66" width="8" height="10" fill="url(#g1)"/>
<rect x="208" y="0" width="8" height="10" fill="url(#g1)"/>
<rect x="208" y="11" width="8" height="10" fill="url(#g1)"/>
<rect x="208" y="22" width="8" height="10" fill="url(#g1)"/>
<rect x="208" y="33" width="8" height="10" fill="url(#g1)"/>
<rect x="208" y="44" width="8" height="10" fill="url(#g1)"/>
<rect x="208" y="55" width="8" height="10" fill="url(#g1)"/>
<rect x="208" y="66" width="8" height="10" fill="url(#g1)"/>
<rect x="217" y="66" width="8" height="10" fill="url(#g1)"/>
<rect x="226" y="66" width="8" height="10" fill="url(#g1)"/>
<rect x="235" y="66" width="8" height="10" fill="url(#g1)"/>
<rect x="244" y="66" width="8" height="10" fill="url(#g1)"/>
<rect x="260" y="0" width="8" height="10" fill="url(#g1)"/>
<rect x="269" y="0" width="8" height="10" fill="url(#g1)"/>
<rect x="278" y="0" width="8" height="10" fill="url(#g1)"/>
<rect x="287" y="0" width="8" height="10" fill="url(#g1)"/>
<rect x="296" y="0" width="8" height="10" fill="url(#g1)"/>
<rect x="278" y="11" width="8" height="10" fill="url(#g1)"/>
<rect x="278" y="22" width="8" height="10" fill="url(#g1)"/>
<rect x="278" y="33" width="8" height="10" fill="url(#g1)"/>
<rect x="278" y="44" width="8" height="10" fill="url(#g1)"/>
<rect x="278" y="55" width="8" height="10" fill="url(#g1)"/>
<rect x="260" y="66" width="8" height="10" fill="url(#g1)"/>
<rect x="269" y="66" width="8" height="10" fill="url(#g1)"/>
<rect x="278" y="66" width="8" height="10" fill="url(#g1)"/>
<rect x="287" y="66" width="8" height="10" fill="url(#g1)"/>
<rect x="296" y="66" width="8" height="10" fill="url(#g1)"/>
<rect x="312" y="0" width="8" height="10" fill="url(#g1)"/>
<rect x="321" y="0" width="8" height="10" fill="url(#g1)"/>
<rect x="330" y="0" width="8" height="10" fill="url(#g1)"/>
<rect x="339" y="0" width="8" height="10" fill="url(#g1)"/>
<rect x="348" y="0" width="8" height="10" fill="url(#g1)"/>
<rect x="330" y="11" width="8" height="10" fill="url(#g1)"/>
<rect x="330" y="22" width="8" height="10" fill="url(#g1)"/>
<rect x="330" y="33" width="8" height="10" fill="url(#g1)"/>
<rect x="330" y="44" width="8" height="10" fill="url(#g1)"/>
<rect x="330" y="55" width="8" height="10" fill="url(#g1)"/>
<rect x="330" y="66" width="8" height="10" fill="url(#g1)"/>
</svg>
